<svg width="12" height="15" viewBox="0 0 12 15" fill="none" xmlns="http://www.w3.org/2000/svg">
<path d="M9.8125 7.40625C9.8125 7.46875 9.71875 9.3125 11.75 10.2812C11.375 11.4375 10.0625 14 8.53125 14C7.65625 14 7.15625 13.4375 6.15625 13.4375C5.125 13.4375 4.5625 14 3.78125 14C2.28125 14.0625 0.84375 11.25 0.4375 10.0938C0.125 9.21875 0 8.375 0 7.5625C0 4.78125 1.84375 3.4375 3.59375 3.40625C4.4375 3.40625 5.5 4 5.96875 4C6.40625 4 7.625 3.28125 8.75 3.375C9.90625 3.46875 10.7812 3.90625 11.375 4.75C10.3438 5.40625 9.8125 6.25 9.8125 7.40625ZM8.0625 2.28125C7.4375 3 6.6875 3.40625 5.875 3.34375C5.8125 2.5 6.125 1.71875 6.6875 1.09375C7.1875 0.53125 8.0625 0.0625 8.8125 0C8.8125 0.34375 8.90625 1.28125 8.0625 2.28125Z" fill="#FFFFFF"/>
</svg>
