<svg width="16" height="16" viewBox="0 0 16 16" fill="none" xmlns="http://www.w3.org/2000/svg">
<path d="M9.77862 16C7.20729 16 5.15529 13.974 5.15529 11.3507C5.15159 10.1891 5.58248 9.06806 6.36329 8.208L3.22062 11.3507L1.57129 9.70133L5.11729 6.19467C5.59729 5.71467 5.84395 5.09067 5.84395 4.40267V0H8.16862V4.40267C8.16862 5.75333 7.68862 6.896 6.75329 7.83133L6.64929 7.93533C7.50474 7.15568 8.62119 6.7247 9.77862 6.72733C12.4153 6.72733 14.4286 8.818 14.4286 11.3507C14.4314 11.962 14.3129 12.5679 14.0802 13.1333C13.8475 13.6986 13.5051 14.2123 13.0727 14.6446C12.6404 15.0769 12.1267 15.4192 11.5613 15.6519C10.9959 15.8845 10.39 16.0028 9.77862 16ZM9.77862 8.85733C8.36329 8.85733 7.25929 10.026 7.25929 11.3507C7.25929 12.714 8.37595 13.8707 9.77929 13.8707C10.4507 13.8732 11.0957 13.6093 11.5729 13.1369C12.0501 12.6644 12.3204 12.0221 12.3246 11.3507C12.3246 9.974 11.1813 8.85733 9.77862 8.85733Z" fill="#FFFFFF"/>
</svg>
