<svg width="96" height="96" viewBox="0 0 96 96" fill="none" xmlns="http://www.w3.org/2000/svg">
<path d="M43.5098 21.1123C46.1309 18.9627 49.8691 18.9627 52.4902 21.1123L57.6738 25.3633C58.4086 25.9658 59.2689 26.3881 60.1875 26.5977L66.6797 28.0791C69.9657 28.8288 72.2865 31.8048 72.2725 35.2207L72.2441 42.0039C72.2402 42.968 72.4536 43.9201 72.8672 44.7861L75.7793 50.8848C77.2466 53.9579 76.4199 57.6599 73.7842 59.7842L68.5654 63.9912C67.8258 64.5873 67.2296 65.3492 66.8232 66.2188L63.9619 72.3428C62.5189 75.431 59.1554 77.0878 55.874 76.3096L49.3936 74.7715C48.4768 74.554 47.5232 74.554 46.6064 74.7715L40.126 76.3096C36.8446 77.0878 33.4811 75.431 32.0381 72.3428L29.1768 66.2188C28.7704 65.3492 28.1742 64.5873 27.4346 63.9912L22.2158 59.7842C19.5801 57.6599 18.7534 53.9579 20.2207 50.8848L23.1328 44.7861C23.5464 43.9201 23.7598 42.968 23.7559 42.0039L23.7275 35.2207C23.7135 31.8048 26.0343 28.8288 29.3203 28.0791L35.8125 26.5977C36.7311 26.3881 37.5914 25.9658 38.3262 25.3633L43.5098 21.1123Z" fill="black" stroke="#848484"/>
<circle cx="48.0004" cy="24.2821" r="1.53651" fill="white"/>
<ellipse cx="47.999" cy="49.1045" rx="21.3046" ry="21.7198" fill="white"/>
<mask id="knobmask" style="mask-type:alpha" maskUnits="userSpaceOnUse" x="26" y="27" width="44" height="44">
<ellipse cx="47.999" cy="49.1045" rx="21.3046" ry="21.7198" fill="#D9D9D9"/>
</mask>
<g mask="url(#knobmask)">
<path d="M69.3036 49.1045C69.3036 46.2523 68.7525 43.4279 67.6819 40.7927C66.6112 38.1576 65.0419 35.7632 63.0636 33.7463C61.0853 31.7295 58.7367 30.1296 56.1519 29.0381C53.5671 27.9466 50.7967 27.3848 47.999 27.3848L47.999 49.1045H69.3036Z" fill="url(#knobA)"/>
<path d="M26.6943 49.1045C26.6943 51.9568 27.2454 54.7812 28.3161 57.4163C29.3867 60.0515 30.956 62.4459 32.9343 64.4627C34.9126 66.4796 37.2612 68.0795 39.846 69.171C42.4308 70.2625 45.2012 70.8243 47.999 70.8243V49.1045L26.6943 49.1045Z" fill="url(#knobA)"/>
<path d="M47.999 70.8243C50.7967 70.8243 53.5671 70.2625 56.1519 69.171C58.7367 68.0795 61.0853 66.4796 63.0636 64.4627C65.0419 62.4459 66.6112 60.0515 67.6819 57.4163C68.7525 54.7812 69.3036 51.9568 69.3036 49.1045H47.999L47.999 70.8243Z" fill="url(#knobB)"/>
<path d="M47.999 27.3848C45.2012 27.3848 42.4308 27.9466 39.846 29.0381C37.2612 30.1296 34.9126 31.7295 32.9343 33.7463C30.956 35.7632 29.3867 38.1576 28.3161 40.7927C27.2454 43.4279 26.6943 46.2523 26.6943 49.1045L47.999 49.1045L47.999 27.3848Z" fill="url(#knobB)"/>
</g>
<defs>
<linearGradient id="knobA" x1="69.3036" y1="27.3848" x2="25.8721" y2="69.9861" gradientUnits="userSpaceOnUse">
<stop stop-color="#F0F0F0"/>
<stop offset="0.509615" stop-color="#8F9AA2"/>
<stop offset="1" stop-color="#F0F0F0"/>
</linearGradient>
<linearGradient id="knobB" x1="32.7814" y1="34.3661" x2="63.7887" y2="64.0204" gradientUnits="userSpaceOnUse">
<stop stop-color="#CDCDCD"/>
<stop offset="0.264423" stop-color="#FDFDFD"/>
<stop offset="0.495192" stop-color="#FDFDFD"/>
<stop offset="0.802885" stop-color="#FDFDFD"/>
<stop offset="0.995192" stop-color="#CDCDCD"/>
</linearGradient>
</defs>
</svg>
