<svg width="16" height="16" viewBox="0 0 16 16" fill="none" xmlns="http://www.w3.org/2000/svg">
<path d="M15.4038 7.29434C15.4488 6.98979 15.4656 6.69161 15.472 6.2364C15.5204 2.7241 12.4587 0.0233831 9.04439 0.00408554C8.20892 -0.00136185 7.79088 -0.00136185 6.9551 0.00408554C3.53983 0.0233831 0.487644 2.6908 0.527777 6.2364C0.532619 6.68227 0.547454 6.99632 0.589774 7.3029C0.151583 7.94143 -0.0737587 8.79161 0.0216563 9.69766L0.0497655 9.96674C0.237628 11.7488 1.59202 13.0679 3.07431 12.9126L3.15286 12.9043C4.16479 14.7956 5.9555 15.9919 7.99857 15.9997V16H8.00325C8.16926 16 8.30371 15.866 8.30371 15.7001V14.6347C8.30371 14.4697 8.16925 14.3362 8.00403 14.3354V14.3333C5.92755 14.3333 4.0561 11.8031 4.0561 9.25708C4.0561 6.74078 5.92755 4.16829 7.9956 4.16829V4.1686H7.99982C8.16566 4.1686 8.30012 4.03477 8.30012 3.86887V2.81653C8.30012 2.65266 8.16769 2.5196 8.00404 2.51727V2.51447C5.77545 2.52054 3.84716 3.94031 2.90082 6.13385L2.36502 6.19018C2.33723 6.19298 2.31068 6.19983 2.2832 6.20388C2.15967 3.54269 4.61969 1.62227 7.25602 1.60765C7.93017 1.6036 8.26702 1.6036 8.94101 1.60765C11.5742 1.62227 13.8436 3.54845 13.7586 6.21073C13.7172 6.20403 13.6768 6.19454 13.6348 6.19018L12.7768 6.10008V6.10101C12.7742 6.10039 12.7714 6.09976 12.7685 6.09899C12.5824 6.07953 12.4151 6.21399 12.3956 6.3995L11.7579 12.4508C11.7383 12.6362 11.8733 12.8027 12.0594 12.8217C12.0625 12.8221 12.0649 12.8214 12.068 12.8217V12.8229L12.9256 12.9126C14.4079 13.0679 15.7619 11.7488 15.9497 9.96674L15.9783 9.69766C16.0743 8.78725 15.846 7.93365 15.4038 7.29434Z" fill="#FFFFFF"/>
</svg>
