<svg width="64" height="64" viewBox="0 0 64 64" fill="none" xmlns="http://www.w3.org/2000/svg">
<rect width="64" height="64" rx="32" fill="black" fill-opacity="0.8"/>
<path id="YOUTUBE" d="M48.2541 23.8125C49 26.4375 49 32.0625 49 32.0625C49 32.0625 49 37.625 48.2541 40.3125C47.8812 41.8125 46.7002 42.9375 45.2706 43.3125C42.5978 44 32.0311 44 32.0311 44C32.0311 44 21.4022 44 18.7294 43.3125C17.2998 42.9375 16.1188 41.8125 15.7459 40.3125C15 37.625 15 32.0625 15 32.0625C15 32.0625 15 26.4375 15.7459 23.8125C16.1188 22.3125 17.2998 21.125 18.7294 20.75C21.4022 20 32.0311 20 32.0311 20C32.0311 20 42.5978 20 45.2706 20.75C46.7002 21.125 47.8812 22.3125 48.2541 23.8125ZM28.5503 37.125L37.3766 32.0625L28.5503 27V37.125Z" fill="#FF001E"/>
</svg>
