<svg width="274" height="24" viewBox="0 0 274 24" fill="none" xmlns="http://www.w3.org/2000/svg">
<g id="2HOT2HANDLE">
<path id="Vector" d="M274 23.6522H253.248V0.347855H274V6.22611H259.805V9.00872H273.477V14.8522H259.805V17.7739H274V23.6522Z" fill="white"/>
<path id="Vector_2" d="M251.504 23.6522H231.45V0.347855H238.007V17.7739H251.504V23.6522Z" fill="white"/>
<path id="Vector_3" d="M217.124 23.6522H205.301V0.347855H217.124C224.832 0.347855 229.715 4.62611 229.715 12C229.715 19.3739 224.832 23.6522 217.124 23.6522ZM217.124 6.22611H211.858V17.7739H217.124C221.275 17.7739 222.705 17.2522 222.705 12C222.705 6.74785 221.275 6.22611 217.124 6.22611Z" fill="white"/>
<path id="Vector_4" d="M185.793 23.6522H179.236V0.347855H186.212L192.699 9.07829L196.117 14.4348H196.57L196.256 9.35655V0.347855H202.813V23.6522H195.838L188.932 14.6783L185.968 10.087H185.514L185.793 14.5392V23.6522Z" fill="white"/>
<path id="Vector_5" d="M156.318 23.6522H148.958L159.038 0.347855H168.42L178.534 23.6522H171.001L169.222 19.3392H158.131L156.318 23.6522ZM161.968 10.1913L160.607 13.4609H166.816L165.455 10.1913L163.921 6.2609H163.467L161.968 10.1913Z" fill="white"/>
<path id="Vector_6" d="M130.821 23.6522H124.264V0.347855H130.821V9.00872H141.702V0.347855H148.259V23.6522H141.702V14.887H130.821V23.6522Z" fill="white"/>
<path id="Vector_7" d="M122.445 23.6522H100.647V19.5478C100.647 15.5826 102.495 13.5304 107.517 11.9304L113.865 9.91304C115.365 9.42609 115.958 8.97391 115.958 7.89565C115.958 6.71304 115.504 5.94783 111.947 5.94783C108.04 5.94783 107.169 6.92174 107.169 9.04348V9.49565H100.751V8.97391C100.751 4.27826 103.96 0 112.191 0C119.585 0 122.515 3.23478 122.515 8C122.515 12.3826 119.585 14.4348 115.4 15.4783L110.168 16.7652C108.633 17.1478 107.552 17.3913 107.552 18.5739L114.109 17.7739H122.445V23.6522Z" fill="white"/>
<path id="Vector_8" d="M91.4248 23.6522H84.8679V6.22611H76.602V0.347855H99.6558V6.22611H91.4248V23.6522Z" fill="white"/>
<path id="Vector_9" d="M62.2977 24C54.1713 24 49.3583 19.2696 49.3583 12C49.3583 4.73043 54.1713 0 62.2977 0C70.6334 0 75.3767 4.73043 75.3767 12C75.3767 19.2696 70.6334 24 62.2977 24ZM62.2977 17.7391C67.041 17.7391 68.4012 16.6261 68.4012 12C68.4012 7.37391 67.041 6.26087 62.2977 6.26087C57.5544 6.26087 56.3337 7.37391 56.3337 12C56.3337 16.6261 57.5544 17.7391 62.2977 17.7391Z" fill="white"/>
<path id="Vector_10" d="M30.1742 23.6522H23.6173V0.347855H30.1742V9.00872H41.0559V0.347855H47.6128V23.6522H41.0559V14.887H30.1742V23.6522Z" fill="white"/>
<path id="Vector_11" d="M21.7982 23.6522H0V19.5478C0 15.5826 1.84849 13.5304 6.8708 11.9304L13.2185 9.91304C14.7182 9.42609 15.3111 8.97391 15.3111 7.89565C15.3111 6.71304 14.8577 5.94783 11.3002 5.94783C7.39396 5.94783 6.52203 6.92174 6.52203 9.04348V9.49565H0.104632V8.97391C0.104632 4.27826 3.31333 0 11.5443 0C18.9383 0 21.868 3.23478 21.868 8C21.868 12.3826 18.9383 14.4348 14.753 15.4783L9.52147 16.7652C7.98687 17.1478 6.90568 17.3913 6.90568 18.5739L13.4626 17.7739H21.7982V23.6522Z" fill="white"/>
</g>
</svg>