<svg width="490" height="848" viewBox="0 0 490 848" fill="none" xmlns="http://www.w3.org/2000/svg">
<path id="Vector-animation" d="M258.67 0.5C313.855 0.5 358.296 8.0246 392.088 23.043C425.857 38.0663 450.534 58.9002 466.09 85.5312C481.657 112.182 489.466 143.355 489.466 179.101C489.466 211.746 482.705 238.893 469.214 260.604L469.044 260.879L469.11 260.978C455.83 282.248 437.554 299.678 414.299 313.232L413.184 313.878C400.572 321.122 386.908 327.492 372.26 333.088L370.936 333.594L372.284 334.031C379.247 336.288 385.872 338.813 392.123 341.574C425.892 356.598 450.568 377.433 466.124 404.063C481.691 430.714 489.5 461.887 489.5 497.632C489.5 530.278 482.739 557.426 469.248 579.137C455.743 600.871 437.036 618.606 413.149 632.309C389.243 646.022 361.676 656.776 330.443 664.565L213.217 693.363C201.725 695.965 191.551 698.703 182.695 701.543H182.693C173.801 704.429 166.813 708.345 161.795 713.346C156.731 718.392 154.228 725.421 154.228 734.328V734.893L154.788 734.824L301.658 716.901H487.907V847.5H0.5V756.104C0.5 726.551 5.43756 701.34 15.292 680.254C25.1396 659.317 41.3679 641.355 63.9707 626.339L63.9697 626.338C86.5836 611.349 116.622 597.862 154.1 585.919L296.326 540.748L296.325 540.747C307.796 537.129 316.947 533.336 323.765 529.43L323.766 529.429C330.565 525.513 335.618 520.762 338.789 515.233C341.959 509.706 343.53 502.998 343.53 495.134C343.53 486.246 341.548 478.49 337.598 471.919C333.602 465.271 325.114 460.16 312.304 456.503H312.303C299.461 452.871 279.753 451.049 253.182 451.049C224.907 451.049 203.044 453.361 187.685 458.009L186.219 458.466C171.005 463.341 160.435 470.772 154.568 480.803L154.293 481.281C148.477 491.509 145.622 504.735 145.622 520.859V530.487H2.83789V527.072L2.06934 527.561L0.5 528.557V437.572C0.5 408.018 5.43779 382.807 15.292 361.856C25.1396 340.92 41.3671 322.957 63.9697 307.941C86.5837 292.952 116.623 279.466 154.101 267.523L154.1 267.522L296.326 222.352L296.325 222.351C307.796 218.732 316.947 214.94 323.765 211.033L323.766 211.032C330.565 207.116 335.618 202.366 338.789 196.837C341.959 191.309 343.53 184.602 343.53 176.737C343.53 167.85 341.548 160.094 337.598 153.522C333.602 146.875 325.114 141.763 312.304 138.106H312.303C299.461 134.475 279.753 132.652 253.182 132.652C224.907 132.652 203.044 134.965 187.685 139.612L186.219 140.069C171.005 144.945 160.435 152.375 154.568 162.406L154.293 162.885C148.477 173.112 145.622 186.339 145.622 202.463V212.091H2.83789V200.909C2.83796 165.681 11.4207 132.95 28.5547 102.642C45.7078 72.393 72.9676 47.8112 110.402 28.873L110.401 28.8721C147.845 9.98012 197.224 0.500047 258.67 0.5Z" fill="#B0C7FD" fill-opacity="0.11"/>
</svg>
